<svg xmlns="http://www.w3.org/2000/svg" xmlns:xlink="http://www.w3.org/1999/xlink" width="48" zoomAndPan="magnify" viewBox="0 0 36 36.000001" height="48" preserveAspectRatio="xMidYMid meet" version="1.2"><defs><clipPath id="52d38eca63"><path d="M 17.417969 1.75 L 18.582031 1.75 L 18.582031 7.890625 L 17.417969 7.890625 Z M 17.417969 1.75 "/></clipPath><clipPath id="555f0fe3c9"><path d="M 17.417969 27.136719 L 18.582031 27.136719 L 18.582031 33.277344 L 17.417969 33.277344 Z M 17.417969 27.136719 "/></clipPath><clipPath id="930963c3e3"><path d="M 2.238281 16.929688 L 8.378906 16.929688 L 8.378906 18.09375 L 2.238281 18.09375 Z M 2.238281 16.929688 "/></clipPath><clipPath id="b3d41d48fe"><path d="M 17.417969 16.929688 L 33.761719 16.929688 L 33.761719 18.09375 L 17.417969 18.09375 Z M 17.417969 16.929688 "/></clipPath><clipPath id="46b9c1a088"><path d="M 11 2 L 15 2 L 15 9 L 11 9 Z M 11 2 "/></clipPath><clipPath id="ba86e9d269"><path d="M 11.289062 3.242188 L 12.359375 2.785156 L 14.765625 8.433594 L 13.695312 8.890625 Z M 11.289062 3.242188 "/></clipPath><clipPath id="e5f128da94"><path d="M 21 26 L 25 26 L 25 33 L 21 33 Z M 21 26 "/></clipPath><clipPath id="9a85a81f0c"><path d="M 21.234375 26.59375 L 22.308594 26.136719 L 24.714844 31.785156 L 23.640625 32.242188 Z M 21.234375 26.59375 "/></clipPath><clipPath id="ee39c2fa04"><path d="M 3 20 L 10 20 L 10 25 L 3 25 Z M 3 20 "/></clipPath><clipPath id="96a7c4392f"><path d="M 3.726562 24.226562 L 3.269531 23.152344 L 8.921875 20.746094 L 9.375 21.820312 Z M 3.726562 24.226562 "/></clipPath><clipPath id="8e69ae4412"><path d="M 26 10 L 33 10 L 33 15 L 26 15 Z M 26 10 "/></clipPath><clipPath id="e0ab99806a"><path d="M 27.082031 14.277344 L 26.625 13.207031 L 32.273438 10.800781 L 32.730469 11.871094 Z M 27.082031 14.277344 "/></clipPath><clipPath id="2b7dec5320"><path d="M 6 5 L 12 5 L 12 12 L 6 12 Z M 6 5 "/></clipPath><clipPath id="fc0bb8aee2"><path d="M 6.441406 6.78125 L 7.265625 5.957031 L 11.609375 10.296875 L 10.785156 11.121094 Z M 6.441406 6.78125 "/></clipPath><clipPath id="952c271e1d"><path d="M 24 23 L 30 23 L 30 30 L 24 30 Z M 24 23 "/></clipPath><clipPath id="723d1da5d2"><path d="M 24.390625 24.730469 L 25.214844 23.90625 L 29.558594 28.246094 L 28.734375 29.070312 Z M 24.390625 24.730469 "/></clipPath><clipPath id="1e01714a08"><path d="M 6 23 L 12 23 L 12 30 L 6 30 Z M 6 23 "/></clipPath><clipPath id="9bee557323"><path d="M 7.265625 29.070312 L 6.441406 28.246094 L 10.785156 23.902344 L 11.609375 24.726562 Z M 7.265625 29.070312 "/></clipPath><clipPath id="263691cc35"><path d="M 24 5 L 30 5 L 30 12 L 24 12 Z M 24 5 "/></clipPath><clipPath id="b107a287bc"><path d="M 25.214844 11.121094 L 24.390625 10.296875 L 28.734375 5.957031 L 29.558594 6.777344 Z M 25.214844 11.121094 "/></clipPath><clipPath id="853636b373"><path d="M 3 11 L 10 11 L 10 15 L 3 15 Z M 3 11 "/></clipPath><clipPath id="c9f4b2f158"><path d="M 3.160156 12.167969 L 3.597656 11.085938 L 9.292969 13.378906 L 8.859375 14.460938 Z M 3.160156 12.167969 "/></clipPath><clipPath id="0b055cd1df"><path d="M 26 20 L 33 20 L 33 24 L 26 24 Z M 26 20 "/></clipPath><clipPath id="cee92a7f65"><path d="M 26.707031 21.648438 L 27.144531 20.566406 L 32.839844 22.859375 L 32.40625 23.941406 Z M 26.707031 21.648438 "/></clipPath><clipPath id="f6e0cf55de"><path d="M 11 26 L 15 26 L 15 33 L 11 33 Z M 11 26 "/></clipPath><clipPath id="66befa6727"><path d="M 12.652344 32.351562 L 11.574219 31.917969 L 13.867188 26.21875 L 14.949219 26.65625 Z M 12.652344 32.351562 "/></clipPath><clipPath id="7d73d1c96e"><path d="M 21 2 L 25 2 L 25 9 L 21 9 Z M 21 2 "/></clipPath><clipPath id="f044f0c0b5"><path d="M 22.132812 8.804688 L 21.054688 8.371094 L 23.347656 2.671875 L 24.425781 3.109375 Z M 22.132812 8.804688 "/></clipPath></defs><g id="3ef8f90a33"><g clip-rule="nonzero" clip-path="url(#52d38eca63)"><path style=" stroke:none;fill-rule:nonzero;fill:#000000;fill-opacity:1;" d="M 17.417969 1.75 L 18.582031 1.75 L 18.582031 7.890625 L 17.417969 7.890625 Z M 17.417969 1.75 "/></g><g clip-rule="nonzero" clip-path="url(#555f0fe3c9)"><path style=" stroke:none;fill-rule:nonzero;fill:#000000;fill-opacity:1;" d="M 17.417969 27.136719 L 18.582031 27.136719 L 18.582031 33.277344 L 17.417969 33.277344 Z M 17.417969 27.136719 "/></g><g clip-rule="nonzero" clip-path="url(#930963c3e3)"><path style=" stroke:none;fill-rule:nonzero;fill:#000000;fill-opacity:1;" d="M 2.238281 18.09375 L 2.238281 16.929688 L 8.378906 16.929688 L 8.378906 18.09375 Z M 2.238281 18.09375 "/></g><g clip-rule="nonzero" clip-path="url(#b3d41d48fe)"><path style=" stroke:none;fill-rule:nonzero;fill:#000000;fill-opacity:1;" d="M 17.417969 18.09375 L 17.417969 16.929688 L 33.765625 16.929688 L 33.765625 18.09375 Z M 17.417969 18.09375 "/></g><g clip-rule="nonzero" clip-path="url(#46b9c1a088)"><g clip-rule="nonzero" clip-path="url(#ba86e9d269)"><path style=" stroke:none;fill-rule:nonzero;fill:#000000;fill-opacity:1;" d="M 11.289062 3.242188 L 12.359375 2.785156 L 14.765625 8.433594 L 13.695312 8.890625 Z M 11.289062 3.242188 "/></g></g><g clip-rule="nonzero" clip-path="url(#e5f128da94)"><g clip-rule="nonzero" clip-path="url(#9a85a81f0c)"><path style=" stroke:none;fill-rule:nonzero;fill:#000000;fill-opacity:1;" d="M 21.234375 26.59375 L 22.308594 26.136719 L 24.714844 31.785156 L 23.640625 32.242188 Z M 21.234375 26.59375 "/></g></g><g clip-rule="nonzero" clip-path="url(#ee39c2fa04)"><g clip-rule="nonzero" clip-path="url(#96a7c4392f)"><path style=" stroke:none;fill-rule:nonzero;fill:#000000;fill-opacity:1;" d="M 3.726562 24.226562 L 3.269531 23.152344 L 8.921875 20.746094 L 9.375 21.820312 Z M 3.726562 24.226562 "/></g></g><g clip-rule="nonzero" clip-path="url(#8e69ae4412)"><g clip-rule="nonzero" clip-path="url(#e0ab99806a)"><path style=" stroke:none;fill-rule:nonzero;fill:#000000;fill-opacity:1;" d="M 27.082031 14.277344 L 26.625 13.207031 L 32.273438 10.800781 L 32.730469 11.871094 Z M 27.082031 14.277344 "/></g></g><g clip-rule="nonzero" clip-path="url(#2b7dec5320)"><g clip-rule="nonzero" clip-path="url(#fc0bb8aee2)"><path style=" stroke:none;fill-rule:nonzero;fill:#000000;fill-opacity:1;" d="M 6.441406 6.78125 L 7.265625 5.957031 L 11.609375 10.296875 L 10.785156 11.121094 Z M 6.441406 6.78125 "/></g></g><g clip-rule="nonzero" clip-path="url(#952c271e1d)"><g clip-rule="nonzero" clip-path="url(#723d1da5d2)"><path style=" stroke:none;fill-rule:nonzero;fill:#000000;fill-opacity:1;" d="M 24.390625 24.730469 L 25.214844 23.90625 L 29.558594 28.246094 L 28.734375 29.070312 Z M 24.390625 24.730469 "/></g></g><g clip-rule="nonzero" clip-path="url(#1e01714a08)"><g clip-rule="nonzero" clip-path="url(#9bee557323)"><path style=" stroke:none;fill-rule:nonzero;fill:#000000;fill-opacity:1;" d="M 7.265625 29.070312 L 6.441406 28.246094 L 10.785156 23.902344 L 11.609375 24.726562 Z M 7.265625 29.070312 "/></g></g><g clip-rule="nonzero" clip-path="url(#263691cc35)"><g clip-rule="nonzero" clip-path="url(#b107a287bc)"><path style=" stroke:none;fill-rule:nonzero;fill:#000000;fill-opacity:1;" d="M 25.214844 11.121094 L 24.390625 10.296875 L 28.734375 5.957031 L 29.558594 6.777344 Z M 25.214844 11.121094 "/></g></g><g clip-rule="nonzero" clip-path="url(#853636b373)"><g clip-rule="nonzero" clip-path="url(#c9f4b2f158)"><path style=" stroke:none;fill-rule:nonzero;fill:#000000;fill-opacity:1;" d="M 3.160156 12.167969 L 3.597656 11.085938 L 9.292969 13.378906 L 8.859375 14.460938 Z M 3.160156 12.167969 "/></g></g><g clip-rule="nonzero" clip-path="url(#0b055cd1df)"><g clip-rule="nonzero" clip-path="url(#cee92a7f65)"><path style=" stroke:none;fill-rule:nonzero;fill:#000000;fill-opacity:1;" d="M 26.707031 21.648438 L 27.144531 20.566406 L 32.839844 22.859375 L 32.40625 23.941406 Z M 26.707031 21.648438 "/></g></g><g clip-rule="nonzero" clip-path="url(#f6e0cf55de)"><g clip-rule="nonzero" clip-path="url(#66befa6727)"><path style=" stroke:none;fill-rule:nonzero;fill:#000000;fill-opacity:1;" d="M 12.652344 32.351562 L 11.574219 31.917969 L 13.867188 26.21875 L 14.949219 26.65625 Z M 12.652344 32.351562 "/></g></g><g clip-rule="nonzero" clip-path="url(#7d73d1c96e)"><g clip-rule="nonzero" clip-path="url(#f044f0c0b5)"><path style=" stroke:none;fill-rule:nonzero;fill:#000000;fill-opacity:1;" d="M 22.132812 8.804688 L 21.054688 8.371094 L 23.347656 2.671875 L 24.425781 3.109375 Z M 22.132812 8.804688 "/></g></g></g></svg>