<svg xmlns="http://www.w3.org/2000/svg" xmlns:xlink="http://www.w3.org/1999/xlink" width="664" zoomAndPan="magnify" viewBox="0 0 498 95.249998" height="127" preserveAspectRatio="xMidYMid meet" version="1.2"><defs><clipPath id="f0744a79bb"><path d="M 54.128906 5.878906 L 57.1875 5.878906 L 57.1875 21.996094 L 54.128906 21.996094 Z M 54.128906 5.878906 "/></clipPath><clipPath id="9a33583745"><path d="M 54.128906 72.507812 L 57.1875 72.507812 L 57.1875 88.628906 L 54.128906 88.628906 Z M 54.128906 72.507812 "/></clipPath><clipPath id="f713c34383"><path d="M 14.285156 45.722656 L 30.40625 45.722656 L 30.40625 48.78125 L 14.285156 48.78125 Z M 14.285156 45.722656 "/></clipPath><clipPath id="0943aebaf6"><path d="M 54.132812 45.722656 L 97.035156 45.722656 L 97.035156 48.78125 L 54.132812 48.78125 Z M 54.132812 45.722656 "/></clipPath><clipPath id="d97ff97063"><path d="M 38 8 L 48 8 L 48 25 L 38 25 Z M 38 8 "/></clipPath><clipPath id="0c1e73cb92"><path d="M 38.039062 9.785156 L 40.855469 8.589844 L 47.171875 23.417969 L 44.355469 24.617188 Z M 38.039062 9.785156 "/></clipPath><clipPath id="a4320b822b"><path d="M 64 69 L 74 69 L 74 86 L 64 86 Z M 64 69 "/></clipPath><clipPath id="fb8a108ae7"><path d="M 64.152344 71.085938 L 66.964844 69.890625 L 73.28125 84.71875 L 70.46875 85.917969 Z M 64.152344 71.085938 "/></clipPath><clipPath id="0b1af7272c"><path d="M 16 55 L 34 55 L 34 65 L 16 65 Z M 16 55 "/></clipPath><clipPath id="682e2120eb"><path d="M 18.195312 64.871094 L 16.996094 62.058594 L 31.828125 55.742188 L 33.023438 58.554688 Z M 18.195312 64.871094 "/></clipPath><clipPath id="c4d8de8d29"><path d="M 78 29 L 95 29 L 95 39 L 78 39 Z M 78 29 "/></clipPath><clipPath id="eab2ae8950"><path d="M 79.496094 38.761719 L 78.296875 35.945312 L 93.128906 29.628906 L 94.324219 32.445312 Z M 79.496094 38.761719 "/></clipPath><clipPath id="d4e71e6de3"><path d="M 25 16 L 39 16 L 39 31 L 25 31 Z M 25 16 "/></clipPath><clipPath id="eaa2dc17b9"><path d="M 25.324219 19.078125 L 27.484375 16.914062 L 38.882812 28.3125 L 36.722656 30.476562 Z M 25.324219 19.078125 "/></clipPath><clipPath id="034b41870b"><path d="M 72 64 L 86 64 L 86 78 L 72 78 Z M 72 64 "/></clipPath><clipPath id="94f42cfb8f"><path d="M 72.4375 66.191406 L 74.601562 64.03125 L 86 75.425781 L 83.835938 77.589844 Z M 72.4375 66.191406 "/></clipPath><clipPath id="2d2d293b0c"><path d="M 25 64 L 39 64 L 39 78 L 25 78 Z M 25 64 "/></clipPath><clipPath id="df032e3300"><path d="M 27.484375 77.589844 L 25.324219 75.425781 L 36.722656 64.027344 L 38.882812 66.191406 Z M 27.484375 77.589844 "/></clipPath><clipPath id="67a42bed87"><path d="M 72 16 L 86 16 L 86 31 L 72 31 Z M 72 16 "/></clipPath><clipPath id="2d72432510"><path d="M 74.601562 30.472656 L 72.4375 28.3125 L 83.835938 16.914062 L 86 19.074219 Z M 74.601562 30.472656 "/></clipPath><clipPath id="6a791949e5"><path d="M 16 30 L 33 30 L 33 40 L 16 40 Z M 16 30 "/></clipPath><clipPath id="caf6ef2d1d"><path d="M 16.707031 33.21875 L 17.851562 30.382812 L 32.804688 36.402344 L 31.660156 39.238281 Z M 16.707031 33.21875 "/></clipPath><clipPath id="8e52ec4e9f"><path d="M 78 55 L 95 55 L 95 65 L 78 65 Z M 78 55 "/></clipPath><clipPath id="24227fb1d4"><path d="M 78.519531 58.101562 L 79.660156 55.265625 L 94.613281 61.285156 L 93.472656 64.121094 Z M 78.519531 58.101562 "/></clipPath><clipPath id="61d86b173b"><path d="M 38 70 L 48 70 L 48 87 L 38 87 Z M 38 70 "/></clipPath><clipPath id="3a7740ec29"><path d="M 41.628906 86.203125 L 38.789062 85.058594 L 44.808594 70.109375 L 47.648438 71.25 Z M 41.628906 86.203125 "/></clipPath><clipPath id="0e6ffdfa4b"><path d="M 63 8 L 73 8 L 73 25 L 63 25 Z M 63 8 "/></clipPath><clipPath id="73d0c8438c"><path d="M 66.511719 24.394531 L 63.671875 23.25 L 69.691406 8.296875 L 72.53125 9.441406 Z M 66.511719 24.394531 "/></clipPath></defs><g id="996fd6b7db"><g clip-rule="nonzero" clip-path="url(#f0744a79bb)"><path style=" stroke:none;fill-rule:nonzero;fill:#000000;fill-opacity:1;" d="M 54.128906 5.878906 L 57.1875 5.878906 L 57.1875 21.996094 L 54.128906 21.996094 Z M 54.128906 5.878906 "/></g><g clip-rule="nonzero" clip-path="url(#9a33583745)"><path style=" stroke:none;fill-rule:nonzero;fill:#000000;fill-opacity:1;" d="M 54.128906 72.507812 L 57.1875 72.507812 L 57.1875 88.628906 L 54.128906 88.628906 Z M 54.128906 72.507812 "/></g><g clip-rule="nonzero" clip-path="url(#f713c34383)"><path style=" stroke:none;fill-rule:nonzero;fill:#000000;fill-opacity:1;" d="M 14.285156 48.78125 L 14.285156 45.722656 L 30.40625 45.722656 L 30.40625 48.78125 Z M 14.285156 48.78125 "/></g><g clip-rule="nonzero" clip-path="url(#0943aebaf6)"><path style=" stroke:none;fill-rule:nonzero;fill:#000000;fill-opacity:1;" d="M 54.132812 48.78125 L 54.132812 45.722656 L 97.039062 45.722656 L 97.039062 48.78125 Z M 54.132812 48.78125 "/></g><g clip-rule="nonzero" clip-path="url(#d97ff97063)"><g clip-rule="nonzero" clip-path="url(#0c1e73cb92)"><path style=" stroke:none;fill-rule:nonzero;fill:#000000;fill-opacity:1;" d="M 38.039062 9.785156 L 40.855469 8.589844 L 47.171875 23.417969 L 44.355469 24.617188 Z M 38.039062 9.785156 "/></g></g><g clip-rule="nonzero" clip-path="url(#a4320b822b)"><g clip-rule="nonzero" clip-path="url(#fb8a108ae7)"><path style=" stroke:none;fill-rule:nonzero;fill:#000000;fill-opacity:1;" d="M 64.152344 71.085938 L 66.964844 69.890625 L 73.28125 84.71875 L 70.46875 85.917969 Z M 64.152344 71.085938 "/></g></g><g clip-rule="nonzero" clip-path="url(#0b1af7272c)"><g clip-rule="nonzero" clip-path="url(#682e2120eb)"><path style=" stroke:none;fill-rule:nonzero;fill:#000000;fill-opacity:1;" d="M 18.195312 64.871094 L 16.996094 62.058594 L 31.824219 55.742188 L 33.023438 58.554688 Z M 18.195312 64.871094 "/></g></g><g clip-rule="nonzero" clip-path="url(#c4d8de8d29)"><g clip-rule="nonzero" clip-path="url(#eab2ae8950)"><path style=" stroke:none;fill-rule:nonzero;fill:#000000;fill-opacity:1;" d="M 79.496094 38.761719 L 78.296875 35.945312 L 93.128906 29.628906 L 94.324219 32.445312 Z M 79.496094 38.761719 "/></g></g><g clip-rule="nonzero" clip-path="url(#d4e71e6de3)"><g clip-rule="nonzero" clip-path="url(#eaa2dc17b9)"><path style=" stroke:none;fill-rule:nonzero;fill:#000000;fill-opacity:1;" d="M 25.324219 19.078125 L 27.484375 16.914062 L 38.882812 28.3125 L 36.722656 30.476562 Z M 25.324219 19.078125 "/></g></g><g clip-rule="nonzero" clip-path="url(#034b41870b)"><g clip-rule="nonzero" clip-path="url(#94f42cfb8f)"><path style=" stroke:none;fill-rule:nonzero;fill:#000000;fill-opacity:1;" d="M 72.4375 66.191406 L 74.601562 64.03125 L 86 75.425781 L 83.835938 77.589844 Z M 72.4375 66.191406 "/></g></g><g clip-rule="nonzero" clip-path="url(#2d2d293b0c)"><g clip-rule="nonzero" clip-path="url(#df032e3300)"><path style=" stroke:none;fill-rule:nonzero;fill:#000000;fill-opacity:1;" d="M 27.484375 77.589844 L 25.324219 75.425781 L 36.722656 64.027344 L 38.882812 66.191406 Z M 27.484375 77.589844 "/></g></g><g clip-rule="nonzero" clip-path="url(#67a42bed87)"><g clip-rule="nonzero" clip-path="url(#2d72432510)"><path style=" stroke:none;fill-rule:nonzero;fill:#000000;fill-opacity:1;" d="M 74.601562 30.472656 L 72.4375 28.3125 L 83.835938 16.914062 L 86 19.074219 Z M 74.601562 30.472656 "/></g></g><g clip-rule="nonzero" clip-path="url(#6a791949e5)"><g clip-rule="nonzero" clip-path="url(#caf6ef2d1d)"><path style=" stroke:none;fill-rule:nonzero;fill:#000000;fill-opacity:1;" d="M 16.707031 33.21875 L 17.851562 30.382812 L 32.804688 36.402344 L 31.660156 39.238281 Z M 16.707031 33.21875 "/></g></g><g clip-rule="nonzero" clip-path="url(#8e52ec4e9f)"><g clip-rule="nonzero" clip-path="url(#24227fb1d4)"><path style=" stroke:none;fill-rule:nonzero;fill:#000000;fill-opacity:1;" d="M 78.519531 58.101562 L 79.660156 55.265625 L 94.613281 61.285156 L 93.472656 64.121094 Z M 78.519531 58.101562 "/></g></g><g clip-rule="nonzero" clip-path="url(#61d86b173b)"><g clip-rule="nonzero" clip-path="url(#3a7740ec29)"><path style=" stroke:none;fill-rule:nonzero;fill:#000000;fill-opacity:1;" d="M 41.628906 86.203125 L 38.789062 85.058594 L 44.808594 70.109375 L 47.648438 71.25 Z M 41.628906 86.203125 "/></g></g><g clip-rule="nonzero" clip-path="url(#0e6ffdfa4b)"><g clip-rule="nonzero" clip-path="url(#73d0c8438c)"><path style=" stroke:none;fill-rule:nonzero;fill:#000000;fill-opacity:1;" d="M 66.511719 24.394531 L 63.671875 23.25 L 69.691406 8.296875 L 72.53125 9.441406 Z M 66.511719 24.394531 "/></g></g><g style="fill:#000000;fill-opacity:1;"><g transform="translate(116.691773, 64.640047)"><path style="stroke:none" d="M 20.21875 0.96875 C 17.164062 0.96875 14.519531 0.5625 12.28125 -0.25 C 10.050781 -1.0625 8.207031 -2.140625 6.75 -3.484375 C 5.300781 -4.835938 4.226562 -6.347656 3.53125 -8.015625 C 2.832031 -9.691406 2.484375 -11.378906 2.484375 -13.078125 L 8.375 -13.078125 C 8.375 -11.503906 8.84375 -10.03125 9.78125 -8.65625 C 10.71875 -7.289062 12.066406 -6.1875 13.828125 -5.34375 C 15.585938 -4.5 17.707031 -4.078125 20.1875 -4.078125 C 24.039062 -4.078125 26.992188 -4.78125 29.046875 -6.1875 C 31.109375 -7.59375 32.140625 -9.691406 32.140625 -12.484375 C 32.140625 -14.253906 31.625 -15.679688 30.59375 -16.765625 C 29.5625 -17.847656 28.160156 -18.691406 26.390625 -19.296875 C 24.617188 -19.910156 22.609375 -20.382812 20.359375 -20.71875 C 18.847656 -20.957031 17.304688 -21.269531 15.734375 -21.65625 C 14.160156 -22.050781 12.65625 -22.554688 11.21875 -23.171875 C 9.78125 -23.796875 8.488281 -24.566406 7.34375 -25.484375 C 6.207031 -26.398438 5.304688 -27.523438 4.640625 -28.859375 C 3.984375 -30.203125 3.65625 -31.785156 3.65625 -33.609375 C 3.65625 -35.285156 3.957031 -36.878906 4.5625 -38.390625 C 5.175781 -39.910156 6.132812 -41.25 7.4375 -42.40625 C 8.738281 -43.570312 10.425781 -44.488281 12.5 -45.15625 C 14.570312 -45.820312 17.078125 -46.15625 20.015625 -46.15625 C 23.554688 -46.15625 26.535156 -45.601562 28.953125 -44.5 C 31.367188 -43.40625 33.195312 -41.894531 34.4375 -39.96875 C 35.675781 -38.050781 36.296875 -35.828125 36.296875 -33.296875 L 30.375 -33.296875 C 30.375 -34.804688 29.972656 -36.132812 29.171875 -37.28125 C 28.378906 -38.4375 27.207031 -39.335938 25.65625 -39.984375 C 24.113281 -40.640625 22.210938 -40.96875 19.953125 -40.96875 C 17.921875 -40.96875 16.226562 -40.757812 14.875 -40.34375 C 13.519531 -39.925781 12.457031 -39.367188 11.6875 -38.671875 C 10.914062 -37.972656 10.363281 -37.179688 10.03125 -36.296875 C 9.695312 -35.410156 9.53125 -34.5 9.53125 -33.5625 C 9.53125 -32 10.019531 -30.703125 11 -29.671875 C 11.988281 -28.640625 13.421875 -27.8125 15.296875 -27.1875 C 17.179688 -26.570312 19.476562 -26.078125 22.1875 -25.703125 C 23.6875 -25.453125 25.191406 -25.128906 26.703125 -24.734375 C 28.222656 -24.335938 29.664062 -23.820312 31.03125 -23.1875 C 32.394531 -22.5625 33.609375 -21.765625 34.671875 -20.796875 C 35.734375 -19.835938 36.566406 -18.675781 37.171875 -17.3125 C 37.773438 -15.957031 38.078125 -14.347656 38.078125 -12.484375 C 38.078125 -9.671875 37.359375 -7.253906 35.921875 -5.234375 C 34.484375 -3.222656 32.429688 -1.6875 29.765625 -0.625 C 27.097656 0.4375 23.914062 0.96875 20.21875 0.96875 Z M 20.21875 0.96875 "/></g></g><g style="fill:#000000;fill-opacity:1;"><g transform="translate(155.603295, 64.640047)"><path style="stroke:none" d="M 36.59375 -17.765625 C 36.59375 -17.472656 36.585938 -17.164062 36.578125 -16.84375 C 36.566406 -16.53125 36.535156 -16.0625 36.484375 -15.4375 L 8.40625 -15.4375 C 8.644531 -13.175781 9.304688 -11.21875 10.390625 -9.5625 C 11.472656 -7.90625 12.832031 -6.628906 14.46875 -5.734375 C 16.113281 -4.835938 17.863281 -4.390625 19.71875 -4.390625 C 22 -4.390625 23.945312 -4.878906 25.5625 -5.859375 C 27.175781 -6.847656 28.363281 -8.289062 29.125 -10.1875 L 35.53125 -10.1875 C 35.039062 -8.644531 34.3125 -7.195312 33.34375 -5.84375 C 32.382812 -4.488281 31.222656 -3.304688 29.859375 -2.296875 C 28.503906 -1.296875 26.976562 -0.507812 25.28125 0.0625 C 23.59375 0.644531 21.785156 0.9375 19.859375 0.9375 C 17.398438 0.9375 15.125 0.476562 13.03125 -0.4375 C 10.9375 -1.363281 9.109375 -2.644531 7.546875 -4.28125 C 5.992188 -5.914062 4.785156 -7.8125 3.921875 -9.96875 C 3.054688 -12.132812 2.625 -14.457031 2.625 -16.9375 C 2.625 -19.414062 3.054688 -21.734375 3.921875 -23.890625 C 4.785156 -26.046875 5.992188 -27.941406 7.546875 -29.578125 C 9.109375 -31.222656 10.9375 -32.507812 13.03125 -33.4375 C 15.125 -34.363281 17.398438 -34.828125 19.859375 -34.828125 C 22.296875 -34.828125 24.535156 -34.375 26.578125 -33.46875 C 28.628906 -32.5625 30.398438 -31.3125 31.890625 -29.71875 C 33.390625 -28.125 34.546875 -26.300781 35.359375 -24.25 C 36.179688 -22.207031 36.59375 -20.046875 36.59375 -17.765625 Z M 8.671875 -20.484375 L 30.75 -20.484375 C 30.65625 -21.679688 30.300781 -22.820312 29.6875 -23.90625 C 29.082031 -24.988281 28.28125 -25.945312 27.28125 -26.78125 C 26.289062 -27.613281 25.148438 -28.265625 23.859375 -28.734375 C 22.566406 -29.210938 21.195312 -29.453125 19.75 -29.453125 C 18.070312 -29.453125 16.46875 -29.109375 14.9375 -28.421875 C 13.414062 -27.734375 12.097656 -26.722656 10.984375 -25.390625 C 9.878906 -24.066406 9.109375 -22.429688 8.671875 -20.484375 Z M 8.671875 -20.484375 "/></g></g><g style="fill:#000000;fill-opacity:1;"><g transform="translate(192.78827, 64.640047)"><path style="stroke:none" d="M 11.21875 0 L 5.484375 0 L 5.484375 -33.875 L 10.984375 -33.875 L 10.984375 -26.296875 C 11.828125 -28.640625 13.140625 -30.488281 14.921875 -31.84375 C 16.703125 -33.195312 18.820312 -33.875 21.28125 -33.875 L 24.578125 -33.875 L 24.578125 -28.859375 L 21.578125 -28.859375 C 19.609375 -28.859375 17.835938 -28.347656 16.265625 -27.328125 C 14.691406 -26.304688 13.457031 -24.832031 12.5625 -22.90625 C 11.664062 -20.976562 11.21875 -18.65625 11.21875 -15.9375 Z M 11.21875 0 "/></g></g><g style="fill:#000000;fill-opacity:1;"><g transform="translate(217.057345, 64.640047)"><path style="stroke:none" d="M 19.59375 0 L 14.171875 0 L 0.4375 -33.875 L 6.515625 -33.875 L 16.078125 -9.96875 L 16.90625 -6.9375 L 17.703125 -9.96875 L 27.265625 -33.875 L 33.375 -33.875 Z M 19.59375 0 "/></g></g><g style="fill:#000000;fill-opacity:1;"><g transform="translate(249.361497, 64.640047)"><path style="stroke:none" d="M 36.59375 -17.765625 C 36.59375 -17.472656 36.585938 -17.164062 36.578125 -16.84375 C 36.566406 -16.53125 36.535156 -16.0625 36.484375 -15.4375 L 8.40625 -15.4375 C 8.644531 -13.175781 9.304688 -11.21875 10.390625 -9.5625 C 11.472656 -7.90625 12.832031 -6.628906 14.46875 -5.734375 C 16.113281 -4.835938 17.863281 -4.390625 19.71875 -4.390625 C 22 -4.390625 23.945312 -4.878906 25.5625 -5.859375 C 27.175781 -6.847656 28.363281 -8.289062 29.125 -10.1875 L 35.53125 -10.1875 C 35.039062 -8.644531 34.3125 -7.195312 33.34375 -5.84375 C 32.382812 -4.488281 31.222656 -3.304688 29.859375 -2.296875 C 28.503906 -1.296875 26.976562 -0.507812 25.28125 0.0625 C 23.59375 0.644531 21.785156 0.9375 19.859375 0.9375 C 17.398438 0.9375 15.125 0.476562 13.03125 -0.4375 C 10.9375 -1.363281 9.109375 -2.644531 7.546875 -4.28125 C 5.992188 -5.914062 4.785156 -7.8125 3.921875 -9.96875 C 3.054688 -12.132812 2.625 -14.457031 2.625 -16.9375 C 2.625 -19.414062 3.054688 -21.734375 3.921875 -23.890625 C 4.785156 -26.046875 5.992188 -27.941406 7.546875 -29.578125 C 9.109375 -31.222656 10.9375 -32.507812 13.03125 -33.4375 C 15.125 -34.363281 17.398438 -34.828125 19.859375 -34.828125 C 22.296875 -34.828125 24.535156 -34.375 26.578125 -33.46875 C 28.628906 -32.5625 30.398438 -31.3125 31.890625 -29.71875 C 33.390625 -28.125 34.546875 -26.300781 35.359375 -24.25 C 36.179688 -22.207031 36.59375 -20.046875 36.59375 -17.765625 Z M 8.671875 -20.484375 L 30.75 -20.484375 C 30.65625 -21.679688 30.300781 -22.820312 29.6875 -23.90625 C 29.082031 -24.988281 28.28125 -25.945312 27.28125 -26.78125 C 26.289062 -27.613281 25.148438 -28.265625 23.859375 -28.734375 C 22.566406 -29.210938 21.195312 -29.453125 19.75 -29.453125 C 18.070312 -29.453125 16.46875 -29.109375 14.9375 -28.421875 C 13.414062 -27.734375 12.097656 -26.722656 10.984375 -25.390625 C 9.878906 -24.066406 9.109375 -22.429688 8.671875 -20.484375 Z M 8.671875 -20.484375 "/></g></g><g style="fill:#000000;fill-opacity:1;"><g transform="translate(286.546473, 64.640047)"><path style="stroke:none" d="M 50.96875 -22.609375 C 50.96875 -20.046875 50.566406 -17.597656 49.765625 -15.265625 C 48.972656 -12.941406 47.863281 -10.8125 46.4375 -8.875 C 45.007812 -6.945312 43.320312 -5.257812 41.375 -3.8125 L 48.90625 6.4375 L 43.5 9.59375 L 36.359375 -1 C 34.878906 -0.375 33.34375 0.09375 31.75 0.40625 C 30.15625 0.726562 28.503906 0.890625 26.796875 0.890625 C 24.140625 0.890625 21.601562 0.5 19.1875 -0.28125 C 16.78125 -1.070312 14.570312 -2.1875 12.5625 -3.625 C 10.5625 -5.0625 8.816406 -6.757812 7.328125 -8.71875 C 5.847656 -10.675781 4.703125 -12.828125 3.890625 -15.171875 C 3.085938 -17.515625 2.6875 -19.992188 2.6875 -22.609375 C 2.6875 -25.242188 3.085938 -27.738281 3.890625 -30.09375 C 4.703125 -32.457031 5.847656 -34.617188 7.328125 -36.578125 C 8.816406 -38.535156 10.5625 -40.226562 12.5625 -41.65625 C 14.570312 -43.082031 16.78125 -44.1875 19.1875 -44.96875 C 21.601562 -45.757812 24.140625 -46.15625 26.796875 -46.15625 C 29.472656 -46.15625 32.015625 -45.757812 34.421875 -44.96875 C 36.835938 -44.1875 39.050781 -43.082031 41.0625 -41.65625 C 43.082031 -40.226562 44.832031 -38.535156 46.3125 -36.578125 C 47.800781 -34.617188 48.945312 -32.457031 49.75 -30.09375 C 50.5625 -27.738281 50.96875 -25.242188 50.96875 -22.609375 Z M 8.5625 -22.609375 C 8.5625 -20.046875 9.03125 -17.664062 9.96875 -15.46875 C 10.914062 -13.28125 12.222656 -11.363281 13.890625 -9.71875 C 15.566406 -8.082031 17.503906 -6.8125 19.703125 -5.90625 C 21.910156 -5 24.273438 -4.546875 26.796875 -4.546875 C 29.316406 -4.546875 31.679688 -5 33.890625 -5.90625 C 36.109375 -6.8125 38.054688 -8.082031 39.734375 -9.71875 C 41.421875 -11.363281 42.734375 -13.28125 43.671875 -15.46875 C 44.617188 -17.664062 45.09375 -20.046875 45.09375 -22.609375 C 45.09375 -25.179688 44.617188 -27.566406 43.671875 -29.765625 C 42.734375 -31.972656 41.421875 -33.894531 39.734375 -35.53125 C 38.054688 -37.164062 36.109375 -38.441406 33.890625 -39.359375 C 31.679688 -40.273438 29.316406 -40.734375 26.796875 -40.734375 C 24.273438 -40.734375 21.910156 -40.273438 19.703125 -39.359375 C 17.503906 -38.441406 15.566406 -37.164062 13.890625 -35.53125 C 12.222656 -33.894531 10.914062 -31.972656 9.96875 -29.765625 C 9.03125 -27.566406 8.5625 -25.179688 8.5625 -22.609375 Z M 8.5625 -22.609375 "/></g></g><g style="fill:#000000;fill-opacity:1;"><g transform="translate(339.237147, 64.640047)"><path style="stroke:none" d="M 20.015625 0.96875 C 17.765625 0.96875 15.695312 0.644531 13.8125 0 C 11.925781 -0.644531 10.289062 -1.640625 8.90625 -2.984375 C 7.53125 -4.335938 6.457031 -6.070312 5.6875 -8.1875 C 4.925781 -10.300781 4.546875 -12.828125 4.546875 -15.765625 L 4.546875 -33.875 L 10.234375 -33.875 L 10.234375 -15.9375 C 10.234375 -12.132812 11.078125 -9.265625 12.765625 -7.328125 C 14.460938 -5.390625 16.859375 -4.421875 19.953125 -4.421875 C 23.078125 -4.421875 25.476562 -5.390625 27.15625 -7.328125 C 28.84375 -9.265625 29.6875 -12.132812 29.6875 -15.9375 L 29.6875 -33.875 L 35.390625 -33.875 L 35.390625 -15.765625 C 35.390625 -12.828125 35.007812 -10.300781 34.25 -8.1875 C 33.488281 -6.070312 32.414062 -4.335938 31.03125 -2.984375 C 29.644531 -1.640625 28.015625 -0.644531 26.140625 0 C 24.273438 0.644531 22.234375 0.96875 20.015625 0.96875 Z M 20.015625 0.96875 "/></g></g><g style="fill:#000000;fill-opacity:1;"><g transform="translate(377.683829, 64.640047)"><path style="stroke:none" d="M 36.59375 -17.765625 C 36.59375 -17.472656 36.585938 -17.164062 36.578125 -16.84375 C 36.566406 -16.53125 36.535156 -16.0625 36.484375 -15.4375 L 8.40625 -15.4375 C 8.644531 -13.175781 9.304688 -11.21875 10.390625 -9.5625 C 11.472656 -7.90625 12.832031 -6.628906 14.46875 -5.734375 C 16.113281 -4.835938 17.863281 -4.390625 19.71875 -4.390625 C 22 -4.390625 23.945312 -4.878906 25.5625 -5.859375 C 27.175781 -6.847656 28.363281 -8.289062 29.125 -10.1875 L 35.53125 -10.1875 C 35.039062 -8.644531 34.3125 -7.195312 33.34375 -5.84375 C 32.382812 -4.488281 31.222656 -3.304688 29.859375 -2.296875 C 28.503906 -1.296875 26.976562 -0.507812 25.28125 0.0625 C 23.59375 0.644531 21.785156 0.9375 19.859375 0.9375 C 17.398438 0.9375 15.125 0.476562 13.03125 -0.4375 C 10.9375 -1.363281 9.109375 -2.644531 7.546875 -4.28125 C 5.992188 -5.914062 4.785156 -7.8125 3.921875 -9.96875 C 3.054688 -12.132812 2.625 -14.457031 2.625 -16.9375 C 2.625 -19.414062 3.054688 -21.734375 3.921875 -23.890625 C 4.785156 -26.046875 5.992188 -27.941406 7.546875 -29.578125 C 9.109375 -31.222656 10.9375 -32.507812 13.03125 -33.4375 C 15.125 -34.363281 17.398438 -34.828125 19.859375 -34.828125 C 22.296875 -34.828125 24.535156 -34.375 26.578125 -33.46875 C 28.628906 -32.5625 30.398438 -31.3125 31.890625 -29.71875 C 33.390625 -28.125 34.546875 -26.300781 35.359375 -24.25 C 36.179688 -22.207031 36.59375 -20.046875 36.59375 -17.765625 Z M 8.671875 -20.484375 L 30.75 -20.484375 C 30.65625 -21.679688 30.300781 -22.820312 29.6875 -23.90625 C 29.082031 -24.988281 28.28125 -25.945312 27.28125 -26.78125 C 26.289062 -27.613281 25.148438 -28.265625 23.859375 -28.734375 C 22.566406 -29.210938 21.195312 -29.453125 19.75 -29.453125 C 18.070312 -29.453125 16.46875 -29.109375 14.9375 -28.421875 C 13.414062 -27.734375 12.097656 -26.722656 10.984375 -25.390625 C 9.878906 -24.066406 9.109375 -22.429688 8.671875 -20.484375 Z M 8.671875 -20.484375 "/></g></g><g style="fill:#000000;fill-opacity:1;"><g transform="translate(414.868805, 64.640047)"><path style="stroke:none" d="M 11.21875 0 L 5.484375 0 L 5.484375 -33.875 L 10.984375 -33.875 L 10.984375 -26.296875 C 11.828125 -28.640625 13.140625 -30.488281 14.921875 -31.84375 C 16.703125 -33.195312 18.820312 -33.875 21.28125 -33.875 L 24.578125 -33.875 L 24.578125 -28.859375 L 21.578125 -28.859375 C 19.609375 -28.859375 17.835938 -28.347656 16.265625 -27.328125 C 14.691406 -26.304688 13.457031 -24.832031 12.5625 -22.90625 C 11.664062 -20.976562 11.21875 -18.65625 11.21875 -15.9375 Z M 11.21875 0 "/></g></g><g style="fill:#000000;fill-opacity:1;"><g transform="translate(439.137879, 64.640047)"><path style="stroke:none" d="M 7.265625 11.5625 L 1.6875 11.5625 L 1.6875 6.734375 L 7.3125 6.734375 C 8.675781 6.734375 9.78125 6.488281 10.625 6 C 11.46875 5.519531 12.179688 4.773438 12.765625 3.765625 C 13.347656 2.765625 13.929688 1.5 14.515625 -0.03125 L 14.875 -1 L 1.421875 -33.875 L 7.5 -33.875 L 17.09375 -9.921875 L 17.890625 -6.9375 L 18.765625 -9.890625 L 28.296875 -33.828125 L 34.359375 -33.875 L 21.015625 -0.9375 C 20.066406 1.457031 19.15625 3.457031 18.28125 5.0625 C 17.40625 6.664062 16.46875 7.941406 15.46875 8.890625 C 14.476562 9.847656 13.320312 10.53125 12 10.9375 C 10.6875 11.351562 9.109375 11.5625 7.265625 11.5625 Z M 7.265625 11.5625 "/></g></g></g></svg>